# xmcd
#
# Track frame offsets: 
#        150
#        31885
#        57756
#        76663
#        107205
#        127340
#        154213
#        167483
#
# Disc length: 2608 seconds
#
# Revision: 0
# Processed by: cddbd v1.5.2PL0 Copyright (c) Steve Scherf et al.
# Submitted via: ExactAudioCopy v0.95b4
#
DISCID=5e0a2e08
DTITLE=Seema - Oorja
DYEAR=2006
DGENRE=Bhajans
TTITLE0=Gurudeva Guru Om
TTITLE1=Durge Nandini
TTITLE2=Jai Guru Deva
TTITLE3=Shiv Shiv
TTITLE4=Your Home
TTITLE5=Ye Na Dhammam
TTITLE6=Come Here
TTITLE7=Dama Dum
EXTD=
EXTT0=
EXTT1=
EXTT2=
EXTT3=
EXTT4=
EXTT5=
EXTT6=
EXTT7=
PLAYORDER=
